<?xml version="1.0" encoding="iso-8859-1"?>
<!-- Generator: Adobe Illustrator 19.0.0, SVG Export Plug-In . SVG Version: 6.00 Build 0)  -->
<svg version="1.1" id="Layer_1" xmlns="http://www.w3.org/2000/svg" xmlns:xlink="http://www.w3.org/1999/xlink" x="0px" y="0px"
	 viewBox="0 0 512 512" style="enable-background:new 0 0 512 512;" xml:space="preserve">
<path style="fill:#575771;" d="M289.391,267.131h-66.782c-9.217,0-16.696-7.473-16.696-16.696v-66.782
	c0-9.223,7.479-16.696,16.696-16.696h66.782c9.217,0,16.696,7.473,16.696,16.696v66.782
	C306.087,259.658,298.608,267.131,289.391,267.131z"/>
<path style="fill:#494965;" d="M289.391,166.958H256v100.173h33.391c9.217,0,16.696-7.473,16.696-16.696v-66.782
	C306.087,174.431,298.608,166.958,289.391,166.958z"/>
<path style="fill:#BA4931;" d="M495.303,333.914H16.697c-9.217,0-16.696-7.473-16.696-16.696v-66.782
	c0-9.223,7.479-16.696,16.696-16.696h478.607c9.217,0,16.696,7.473,16.696,16.696v66.782
	C511.999,326.441,504.52,333.914,495.303,333.914z"/>
<path style="fill:#AD3D25;" d="M495.303,233.74H256v100.173h239.303c9.217,0,16.696-7.473,16.696-16.696v-66.782
	C511.999,241.213,504.52,233.74,495.303,233.74z"/>
<path style="fill:#C95E48;" d="M150.261,512H83.479c-9.217,0-16.696-7.473-16.696-16.696V183.653
	c0-9.223,7.479-16.696,16.696-16.696h66.782c9.217,0,16.696,7.473,16.696,16.696v311.651C166.957,504.527,159.478,512,150.261,512z"
	/>
<g>
	<path style="fill:#BA4931;" d="M428.521,512h-66.782c-9.217,0-16.696-7.473-16.696-16.696V183.653
		c0-9.223,7.479-16.696,16.696-16.696h66.782c9.217,0,16.696,7.473,16.696,16.696v311.651C445.216,504.527,437.738,512,428.521,512z
		"/>
	<path style="fill:#BA4931;" d="M445.216,200.349H66.783v-83.478c0-9.22,7.475-16.696,16.696-16.696h345.042
		c9.22,0,16.696,7.475,16.696,16.696V200.349z"/>
</g>
<path style="fill:#AD3D25;" d="M428.521,100.175H256v100.173h189.217v-83.478C445.216,107.651,437.741,100.175,428.521,100.175z"/>
<path style="fill:#575771;" d="M428.521,133.567H83.479c-46.032,0-83.478-37.446-83.478-83.478V16.697
	c0-6.755,4.065-12.842,10.305-15.423s13.413-1.158,18.196,3.62c18.38,18.38,42.814,28.499,68.804,28.499h317.39
	c25.989,0,50.424-10.12,68.804-28.499c4.783-4.783,11.967-6.206,18.196-3.62c6.239,2.581,10.305,8.668,10.305,15.423v33.391
	C511.999,96.122,474.554,133.567,428.521,133.567z"/>
<path style="fill:#494965;" d="M501.694,1.274c-6.229-2.587-13.413-1.163-18.196,3.62c-18.381,18.381-42.815,28.499-68.804,28.499
	H256v100.173h172.521c46.032,0,83.478-37.446,83.478-83.478V16.697C511.999,9.942,507.934,3.855,501.694,1.274z"/>
<g>
</g>
<g>
</g>
<g>
</g>
<g>
</g>
<g>
</g>
<g>
</g>
<g>
</g>
<g>
</g>
<g>
</g>
<g>
</g>
<g>
</g>
<g>
</g>
<g>
</g>
<g>
</g>
<g>
</g>
</svg>
