<?xml version="1.0" encoding="utf-8"?>
<!-- Generator: Adobe Illustrator 16.0.0, SVG Export Plug-In . SVG Version: 6.00 Build 0)  -->
<!DOCTYPE svg PUBLIC "-//W3C//DTD SVG 1.1//EN" "http://www.w3.org/Graphics/SVG/1.1/DTD/svg11.dtd">
<svg version="1.1" id="Layer_1" xmlns="http://www.w3.org/2000/svg" xmlns:xlink="http://www.w3.org/1999/xlink" x="0px" y="0px"
	 width="24px" height="24px" viewBox="0 0 24 24" enable-background="new 0 0 24 24" xml:space="preserve">
<g>
	<path d="M10.083,11.67c0.561,0,1.015-0.5,1.015-1.119s-0.455-1.119-1.015-1.119c-0.561,0-1.018,0.5-1.018,1.119
		S9.522,11.67,10.083,11.67z M10.277,9.574c0.256,0,0.464,0.225,0.464,0.508s-0.208,0.514-0.464,0.514s-0.462-0.23-0.462-0.514
		S10.021,9.574,10.277,9.574z"/>
	<path d="M13.92,11.67c0.56,0,1.015-0.5,1.015-1.119S14.48,9.432,13.92,9.432c-0.56,0-1.016,0.5-1.016,1.119
		S13.36,11.67,13.92,11.67z M14.115,9.574c0.254,0,0.464,0.225,0.464,0.508s-0.21,0.514-0.464,0.514
		c-0.255,0-0.463-0.23-0.463-0.514S13.859,9.574,14.115,9.574z"/>
	<path d="M18.01,3.578h0.683c0.071,0,0.133-0.031,0.179-0.078c0.001,0,0.003,0,0.004-0.002c0.021-0.021,0.02-0.053,0.031-0.08
		c0.013-0.031,0.037-0.055,0.037-0.09c0-0.002-0.002-0.002-0.002-0.004c0-0.031-0.022-0.055-0.034-0.082
		c-0.013-0.033-0.017-0.068-0.042-0.092c-0.001-0.002-0.001-0.004-0.002-0.004c-0.84-0.785-2.02-1.215-2.646-1.4l0.598-0.594
		c0.011-0.012,0.008-0.027,0.017-0.041c0.02-0.027,0.028-0.053,0.036-0.084c0.007-0.033,0.01-0.059,0.004-0.092
		c-0.002-0.016,0.007-0.029,0.002-0.045c-0.007-0.02-0.026-0.025-0.037-0.041c-0.01-0.016-0.007-0.037-0.021-0.051
		c-0.012-0.012-0.029-0.008-0.042-0.018c-0.026-0.018-0.051-0.027-0.082-0.035c-0.033-0.006-0.06-0.01-0.093-0.004
		c-0.016,0.002-0.03-0.008-0.045-0.002c-0.43,0.156-1.15,0.084-1.914,0.008c-1.091-0.107-2.211-0.211-2.933,0.266
		C9.709-0.146,8.16,0.061,8.095,0.072C8.076,0.074,8.067,0.094,8.05,0.1c-0.018,0.006-0.037,0-0.054,0.01
		C7.982,0.119,7.981,0.137,7.97,0.148C7.946,0.17,7.933,0.193,7.919,0.223c-0.014,0.031-0.021,0.057-0.022,0.09
		c0,0.016-0.013,0.027-0.011,0.043C7.889,0.375,7.906,0.385,7.913,0.4c0.006,0.02,0,0.039,0.01,0.055l0.523,0.801
		C7.107,1.1,6.453,1.289,5.82,1.475c-0.437,0.129-0.85,0.25-1.499,0.25c-0.018,0-0.029,0.016-0.046,0.018
		C4.243,1.75,4.219,1.76,4.191,1.777c-0.028,0.02-0.047,0.037-0.065,0.064c-0.01,0.016-0.028,0.02-0.035,0.035
		c-0.007,0.018,0.003,0.033,0,0.051C4.087,1.945,4.071,1.955,4.071,1.975c0,0.018,0.016,0.027,0.019,0.045
		c0.006,0.033,0.017,0.057,0.035,0.084C4.144,2.133,4.162,2.15,4.19,2.17c0.014,0.01,0.019,0.027,0.035,0.035l1.877,0.781
		C5.631,3.74,4.375,6.121,4.271,10.215c0,0.004,0.004,0.006,0.004,0.01c0,0.033,0.021,0.059,0.033,0.088
		c0.014,0.031,0.019,0.063,0.042,0.086c0.003,0.002,0.002,0.008,0.005,0.01c0.035,0.031,0.08,0.039,0.123,0.047
		c0.013,0.002,0.021,0.016,0.036,0.016c0.002,0,0.004,0,0.006,0c0.072,0,0.133-0.033,0.179-0.082
		c0.002-0.002,0.006-0.002,0.009-0.004l0.838-0.957c-0.35,3.613,1.274,5.012,1.349,5.074c0.046,0.039,0.103,0.057,0.159,0.057
		c0,0,0,0,0,0h0c0.004,0,0.01,0,0.015,0c0.071-0.004,0.131-0.037,0.174-0.088c0,0,0.002,0,0.002-0.002
		c0.016-0.018,0.011-0.043,0.021-0.066c0.016-0.035,0.04-0.066,0.038-0.107l-0.152-2.617c0.066,0.131,0.135,0.26,0.206,0.387
		c0.01,0.016,0.013,0.033,0.026,0.049c0.222,0.385,0.459,0.752,0.724,1.076c0,0.006-0.006,0.008-0.006,0.014v0.994l-1.213,1.076
		c-0.015,0.014-0.014,0.035-0.024,0.051c-0.02,0.027-0.032,0.049-0.04,0.082s-0.006,0.059-0.001,0.092
		c0.003,0.02-0.008,0.037,0,0.055l1.279,3.191v0.404c0,0.139,0.112,0.25,0.25,0.25h0.408l0.76,4.344
		c0.006,0.035,0.031,0.059,0.049,0.086c0.012,0.018,0.015,0.039,0.03,0.053c0.045,0.041,0.102,0.068,0.166,0.068h0l0,0h0.98l0,0h0
		c0.064,0,0.121-0.027,0.166-0.068c0.016-0.014,0.019-0.035,0.03-0.053c0.019-0.027,0.044-0.051,0.05-0.086l0.742-4.344h0.262h0.099
		h0.171l0.742,4.344c0.006,0.035,0.031,0.059,0.05,0.086c0.012,0.018,0.015,0.039,0.03,0.053c0.045,0.041,0.102,0.068,0.166,0.068h0
		l0,0h0.98l0,0h0c0.064,0,0.121-0.027,0.166-0.068c0.016-0.014,0.019-0.035,0.03-0.053c0.019-0.027,0.043-0.051,0.049-0.086
		l0.76-4.344h0.499c0.138,0,0.25-0.111,0.25-0.25v-0.404l1.279-3.191c0.007-0.018-0.003-0.035,0-0.055
		c0.005-0.033,0.007-0.059-0.001-0.092c-0.007-0.033-0.02-0.055-0.04-0.082c-0.011-0.016-0.009-0.037-0.024-0.051l-1.213-1.076
		v-0.906c0.303-0.355,0.577-0.756,0.826-1.193c0.016-0.016,0.02-0.035,0.03-0.055c0.073-0.131,0.144-0.262,0.211-0.398l-0.161,2.777
		c-0.002,0.031,0.02,0.053,0.028,0.082c0.009,0.031,0.006,0.066,0.029,0.092c0.001,0.002,0.003,0.002,0.004,0.002
		c0.043,0.051,0.103,0.084,0.174,0.088c0.005,0.002,0.01,0.002,0.015,0.002c0.056,0,0.113-0.02,0.16-0.059
		c0.074-0.061,1.698-1.459,1.348-5.072l0.837,0.959c0.002,0.002,0.006,0.002,0.008,0.004c0.046,0.049,0.108,0.082,0.18,0.082
		c0.059,0,0.117-0.021,0.165-0.063c0.002-0.002,0.001-0.006,0.004-0.008c0.023-0.021,0.028-0.053,0.042-0.082
		c0.014-0.031,0.036-0.057,0.037-0.09c0-0.004,0.003-0.006,0.003-0.008C19.929,10.199,19.9,6.727,18.01,3.578z M8.266,6.895
		l1.37,1.895c0.005,0.006,0.016,0.004,0.021,0.01c0.046,0.055,0.106,0.094,0.181,0.094h0l0,0l0,0c0.01,0,0.019,0,0.028-0.002
		c0.014-0.002,0.02-0.014,0.033-0.018c0.029-0.008,0.06-0.01,0.086-0.027c0.01-0.008,0.01-0.021,0.019-0.031
		c0.024-0.021,0.035-0.047,0.048-0.078c0.013-0.029,0.025-0.055,0.025-0.088c0-0.012,0.011-0.021,0.01-0.033L9.94,7.318
		c1.264,1.41,3.751,1.998,3.878,2.027c0.018,0.004,0.037,0.006,0.055,0.006l0,0c0,0,0,0,0,0l0,0l0,0c0.011,0,0.021,0,0.031-0.002
		c0.016-0.002,0.024-0.018,0.04-0.021c0.04-0.014,0.074-0.029,0.103-0.059c0.017-0.018,0.024-0.035,0.036-0.057
		c0.01-0.02,0.029-0.031,0.034-0.055c0.003-0.016-0.008-0.029-0.007-0.045c0.001-0.014,0.014-0.025,0.012-0.043l-0.206-1.623
		l1.365,1.807c0.012,0.016,0.035,0.012,0.049,0.023c0.023,0.021,0.037,0.051,0.068,0.061c0.027,0.01,0.055,0.014,0.083,0.014
		c0.053,0,0.104-0.018,0.146-0.049c0.001,0,0.003,0,0.005,0c0.007-0.006,0.006-0.016,0.012-0.021
		c0.03-0.027,0.059-0.057,0.073-0.096l0.331-0.947l0.332,3.619c-1.035,1.811-2.598,2.918-4.284,2.918c-1.681,0-3.241-1.1-4.276-2.9
		L8.266,6.895z M10.381,14.93l1.517,1.963c0.003,0.004,0.009,0.004,0.013,0.008l-1.323,1.998H8.602v-5.188
		C9.142,14.244,9.738,14.666,10.381,14.93z M7.352,15.531l0.75-0.666V17.4L7.352,15.531z M10.534,23.449H9.975l-0.708-4.051h1.96
		L10.534,23.449z M14.025,23.449h-0.559l-0.692-4.051h1.96L14.025,23.449z M16.739,15.531L15.99,17.4v-2.535L16.739,15.531z
		 M15.49,18.898h-3.395h-0.099h-0.81l2.628-3.971c0.6-0.246,1.163-0.627,1.675-1.111V18.898z"/>
</g>
</svg>
